{"title":"Saving Private Ryan (H264) - Jaguar-Rip (0","uid":5022127,"size":1475342242,"categoryP":"video","categoryS":"movies","magnet":"?xt=urn:btih:4e305f252c8b29817400369b238ae76342b2ab95&amp;dn=Saving+Private+Ryan+%28H264%29+-+Jaguar-Rip+%280&amp;tr=udp%3A%2F%2Ftracker.openbittorrent.com%3A80&amp;tr=udp%3A%2F%2Fopen.demonii.com%3A1337&amp;tr=udp%3A%2F%2Ftracker.coppersurfer.tk%3A6969&amp;tr=udp%3A%2F%2Fexodus.desync.com%3A6969","seeders":0,"leechers":1,"uploader":"post_bezorger","files":7,"time":1248522900,"description":" &lt;a href=&quot;http://img253.imageshack.us/img253/1821/savingprivateryanr2cdco.jpg&quot; rel=&quot;nofollow&quot; target=&quot;_NEW&quot;&gt;http://img253.imageshack.us/img253/1821/savingprivateryanr2cdco.jpg&lt;/a&gt;\n[color=red]James Ryan, who has parachuted into France during the Allied invasion of Europe, \nhas just lost three brothers in combat. \nGovernment policy dictates that he should return home lest his family be deprived of all its male offspring. \nA team of soldiers, led by Captain John Miller and fresh from the beaches of Normandy, is assembled to find and save Private Ryan. \n\n\n\nGeneral\nComplete name                    : Saving Private Ryan.mkv\nFormat                           : Matroska\nFile size                        : 1.37 GiB\nDuration                         : 2h 42mn\nOverall bit rate                 : 1 207 Kbps\nWriting application              : HandBrake 0.9.3\n\nVideo\nID                               : 1\nFormat                           : AVC\nFormat/Info                      : Advanced Video Codec\nFormat profile                   : &lt;a class=&quot;__cf_email__&quot; href=&quot;/cdn-cgi/l/email-protection&quot; data-cfemail=&quot;f8b0919f90b8b4cbd6c9&quot;&gt;[email&amp;#160;protected]&lt;/a&gt;&lt;script cf-hash='f9e31' type=&quot;text/javascript&quot;&gt;\n/* &lt;![CDATA[ */!function(){try{var t=&quot;currentScript&quot;in document?document.currentScript:function(){for(var t=document.getElementsByTagName(&quot;script&quot;),e=t.length;e--;)if(t[e].getAttribute(&quot;cf-hash&quot;))return t[e]}();if(t&amp;&amp;t.previousSibling){var e,r,n,i,c=t.previousSibling,a=c.getAttribute(&quot;data-cfemail&quot;);if(a){for(e=&quot;&quot;,r=parseInt(a.substr(0,2),16),n=2;a.length-n;n+=2)i=parseInt(a.substr(n,2),16)^r,e+=String.fromCharCode(i);e=document.createTextNode(e),c.parentNode.replaceChild(e,c)}}}catch(u){}}();/* ]]&gt; */&lt;/script&gt;\nFormat settings, CABAC           : Yes\nFormat settings, ReFrames        : 6 frames\nMuxing mode                      : Container profile=&lt;a class=&quot;__cf_email__&quot; href=&quot;/cdn-cgi/l/email-protection&quot; data-cfemail=&quot;33665d585d5c445d73001d02&quot;&gt;[email&amp;#160;protected]&lt;/a&gt;&lt;script cf-hash='f9e31' type=&quot;text/javascript&quot;&gt;\n/* &lt;![CDATA[ */!function(){try{var t=&quot;currentScript&quot;in document?document.currentScript:function(){for(var t=document.getElementsByTagName(&quot;script&quot;),e=t.length;e--;)if(t[e].getAttribute(&quot;cf-hash&quot;))return t[e]}();if(t&amp;&amp;t.previousSibling){var e,r,n,i,c=t.previousSibling,a=c.getAttribute(&quot;data-cfemail&quot;);if(a){for(e=&quot;&quot;,r=parseInt(a.substr(0,2),16),n=2;a.length-n;n+=2)i=parseInt(a.substr(n,2),16)^r,e+=String.fromCharCode(i);e=document.createTextNode(e),c.parentNode.replaceChild(e,c)}}}catch(u){}}();/* ]]&gt; */&lt;/script&gt;\nCodec ID                         : V_MPEG4/ISO/AVC\nDuration                         : 2h 42mn\nBit rate                         : 1 055 Kbps\nNominal bit rate                 : 1 073 Kbps\nWidth                            : 714 pixels\nHeight                           : 576 pixels\nDisplay aspect ratio             : 16/9\nFrame rate                       : 25.000 fps\nResolution                       : 24 bits\nColorimetry                      : 4:2:0\nScan type                        : Progressive\nBits/(Pixel*Frame)               : 0.103\nStream size                      : 1.20 GiB (87%)\nWriting library                  : x264 core 65\n\n\nAudio\nID                               : 2\nFormat                           : MPEG Audio\nFormat version                   : Version 1\nFormat profile                   : Layer 3\nCodec ID                         : A_MPEG/L3\nCodec ID/Hint                    : MP3\nDuration                         : 2h 42mn\nBit rate mode                    : Constant\nBit rate                         : 128 Kbps\nChannel(s)                       : 2 channels\nSampling rate                    : 44.1 KHz\nResolution                       : 16 bits\nStream size                      : 149 MiB (11%)\nLanguage                         : English[/color]\nhttp://img253.imageshack.us/img253/3065/savingprivateryan.jpg","torrent":{"xt":"urn:btih:4e305f252c8b29817400369b238ae76342b2ab95","amp;dn":"Saving+Private+Ryan+%28H264%29+-+Jaguar-Rip+%280","amp;tr":["udp%3A%2F%2Ftracker.openbittorrent.com%3A80","udp%3A%2F%2Fopen.demonii.com%3A1337","udp%3A%2F%2Ftracker.coppersurfer.tk%3A6969","udp%3A%2F%2Fexodus.desync.com%3A6969"],"infoHash":"4e305f252c8b29817400369b238ae76342b2ab95","infoHashBuffer":{"type":"Buffer","data":[78,48,95,37,44,139,41,129,116,0,54,155,35,138,231,99,66,178,171,149]},"announce":[],"urlList":[]}}